<svg width="704" height="576" viewBox="0 0 704 576" fill="none" xmlns="http://www.w3.org/2000/svg">
<g clip-path="url(#clip0_1_2)">
<line x1="351.5" y1="576" x2="351.5" y2="2.18557e-08" stroke="#FF0000"/>
<line x1="704" y1="288.5" y2="288.5" stroke="#FF0000"/>
<line x1="704" y1="96.5" y2="96.5" stroke="#FF0000"/>
<line x1="704" y1="480.5" y2="480.5" stroke="#FF0000"/>
<line x1="704" y1="384.5" y2="384.5" stroke="#FF0000"/>
<line x1="704" y1="192.5" y2="192.5" stroke="#FF0000"/>
<rect width="32" height="32" stroke="#FF0000" stroke-width="0.25"/>
<rect x="32" width="32" height="32" stroke="#FF0000" stroke-width="0.25"/>
<rect x="128" width="32" height="32" stroke="#FF0000" stroke-width="0.25"/>
<rect x="96" width="32" height="32" stroke="#FF0000" stroke-width="0.25"/>
<rect x="64" width="32" height="32" stroke="#FF0000" stroke-width="0.25"/>
<rect x="160" width="32" height="32" stroke="#FF0000" stroke-width="0.25"/>
<rect x="192" width="32" height="32" stroke="#FF0000" stroke-width="0.25"/>
<rect x="288" width="32" height="32" stroke="#FF0000" stroke-width="0.25"/>
<rect x="320" width="32" height="32" stroke="#FF0000" stroke-width="0.25"/>
<rect x="256" width="32" height="32" stroke="#FF0000" stroke-width="0.25"/>
<rect x="224" width="32" height="32" stroke="#FF0000" stroke-width="0.25"/>
<rect y="32" width="32" height="32" stroke="#FF0000" stroke-width="0.25"/>
<rect x="32" y="32" width="32" height="32" stroke="#FF0000" stroke-width="0.25"/>
<rect x="128" y="32" width="32" height="32" stroke="#FF0000" stroke-width="0.25"/>
<rect x="96" y="32" width="32" height="32" stroke="#FF0000" stroke-width="0.25"/>
<rect x="64" y="32" width="32" height="32" stroke="#FF0000" stroke-width="0.25"/>
<rect x="160" y="32" width="32" height="32" stroke="#FF0000" stroke-width="0.25"/>
<rect x="192" y="32" width="32" height="32" stroke="#FF0000" stroke-width="0.25"/>
<rect x="288" y="32" width="32" height="32" stroke="#FF0000" stroke-width="0.25"/>
<rect x="320" y="32" width="32" height="32" stroke="#FF0000" stroke-width="0.25"/>
<rect x="256" y="32" width="32" height="32" stroke="#FF0000" stroke-width="0.25"/>
<rect x="224" y="32" width="32" height="32" stroke="#FF0000" stroke-width="0.25"/>
<rect y="64" width="32" height="32" stroke="#FF0000" stroke-width="0.25"/>
<rect x="32" y="64" width="32" height="32" stroke="#FF0000" stroke-width="0.25"/>
<rect x="128" y="64" width="32" height="32" stroke="#FF0000" stroke-width="0.25"/>
<rect x="96" y="64" width="32" height="32" stroke="#FF0000" stroke-width="0.25"/>
<rect x="64" y="64" width="32" height="32" stroke="#FF0000" stroke-width="0.25"/>
<rect x="160" y="64" width="32" height="32" stroke="#FF0000" stroke-width="0.25"/>
<rect x="192" y="64" width="32" height="32" stroke="#FF0000" stroke-width="0.25"/>
<rect x="288" y="64" width="32" height="32" stroke="#FF0000" stroke-width="0.25"/>
<rect x="320" y="64" width="32" height="32" stroke="#FF0000" stroke-width="0.25"/>
<rect x="256" y="64" width="32" height="32" stroke="#FF0000" stroke-width="0.25"/>
<rect x="224" y="64" width="32" height="32" stroke="#FF0000" stroke-width="0.25"/>
<rect y="192" width="32" height="32" stroke="#FF0000" stroke-width="0.25"/>
<rect x="32" y="192" width="32" height="32" stroke="#FF0000" stroke-width="0.25"/>
<rect x="128" y="192" width="32" height="32" stroke="#FF0000" stroke-width="0.25"/>
<rect x="96" y="192" width="32" height="32" stroke="#FF0000" stroke-width="0.25"/>
<rect x="64" y="192" width="32" height="32" stroke="#FF0000" stroke-width="0.25"/>
<rect x="160" y="192" width="32" height="32" stroke="#FF0000" stroke-width="0.25"/>
<rect x="192" y="192" width="32" height="32" stroke="#FF0000" stroke-width="0.25"/>
<rect x="288" y="192" width="32" height="32" stroke="#FF0000" stroke-width="0.25"/>
<rect x="320" y="192" width="32" height="32" stroke="#FF0000" stroke-width="0.25"/>
<rect x="256" y="192" width="32" height="32" stroke="#FF0000" stroke-width="0.25"/>
<rect x="224" y="192" width="32" height="32" stroke="#FF0000" stroke-width="0.25"/>
<rect y="224" width="32" height="32" stroke="#FF0000" stroke-width="0.25"/>
<rect x="32" y="224" width="32" height="32" stroke="#FF0000" stroke-width="0.25"/>
<rect x="128" y="224" width="32" height="32" stroke="#FF0000" stroke-width="0.25"/>
<rect x="96" y="224" width="32" height="32" stroke="#FF0000" stroke-width="0.25"/>
<rect x="64" y="224" width="32" height="32" stroke="#FF0000" stroke-width="0.25"/>
<rect x="160" y="224" width="32" height="32" stroke="#FF0000" stroke-width="0.25"/>
<rect x="192" y="224" width="32" height="32" stroke="#FF0000" stroke-width="0.25"/>
<rect x="288" y="224" width="32" height="32" stroke="#FF0000" stroke-width="0.25"/>
<rect x="320" y="224" width="32" height="32" stroke="#FF0000" stroke-width="0.25"/>
<rect x="256" y="224" width="32" height="32" stroke="#FF0000" stroke-width="0.25"/>
<rect x="224" y="224" width="32" height="32" stroke="#FF0000" stroke-width="0.25"/>
<rect y="256" width="32" height="32" stroke="#FF0000" stroke-width="0.25"/>
<rect x="32" y="256" width="32" height="32" stroke="#FF0000" stroke-width="0.25"/>
<rect x="128" y="256" width="32" height="32" stroke="#FF0000" stroke-width="0.25"/>
<rect x="96" y="256" width="32" height="32" stroke="#FF0000" stroke-width="0.25"/>
<rect x="64" y="256" width="32" height="32" stroke="#FF0000" stroke-width="0.25"/>
<rect x="160" y="256" width="32" height="32" stroke="#FF0000" stroke-width="0.25"/>
<rect x="192" y="256" width="32" height="32" stroke="#FF0000" stroke-width="0.25"/>
<rect x="288" y="256" width="32" height="32" stroke="#FF0000" stroke-width="0.25"/>
<rect x="320" y="256" width="32" height="32" stroke="#FF0000" stroke-width="0.25"/>
<rect x="256" y="256" width="32" height="32" stroke="#FF0000" stroke-width="0.25"/>
<rect x="224" y="256" width="32" height="32" stroke="#FF0000" stroke-width="0.25"/>
<rect y="96" width="32" height="32" stroke="#FF0000" stroke-width="0.25"/>
<rect x="32" y="96" width="32" height="32" stroke="#FF0000" stroke-width="0.25"/>
<rect x="128" y="96" width="32" height="32" stroke="#FF0000" stroke-width="0.25"/>
<rect x="96" y="96" width="32" height="32" stroke="#FF0000" stroke-width="0.25"/>
<rect x="64" y="96" width="32" height="32" stroke="#FF0000" stroke-width="0.25"/>
<rect x="160" y="96" width="32" height="32" stroke="#FF0000" stroke-width="0.25"/>
<rect x="192" y="96" width="32" height="32" stroke="#FF0000" stroke-width="0.25"/>
<rect x="288" y="96" width="32" height="32" stroke="#FF0000" stroke-width="0.25"/>
<rect x="320" y="96" width="32" height="32" stroke="#FF0000" stroke-width="0.25"/>
<rect x="256" y="96" width="32" height="32" stroke="#FF0000" stroke-width="0.25"/>
<rect x="224" y="96" width="32" height="32" stroke="#FF0000" stroke-width="0.25"/>
<rect y="128" width="32" height="32" stroke="#FF0000" stroke-width="0.25"/>
<rect x="32" y="128" width="32" height="32" stroke="#FF0000" stroke-width="0.25"/>
<rect x="128" y="128" width="32" height="32" stroke="#FF0000" stroke-width="0.25"/>
<rect x="96" y="128" width="32" height="32" stroke="#FF0000" stroke-width="0.25"/>
<rect x="64" y="128" width="32" height="32" stroke="#FF0000" stroke-width="0.25"/>
<rect x="160" y="128" width="32" height="32" stroke="#FF0000" stroke-width="0.25"/>
<rect x="192" y="128" width="32" height="32" stroke="#FF0000" stroke-width="0.25"/>
<rect x="288" y="128" width="32" height="32" stroke="#FF0000" stroke-width="0.25"/>
<rect x="320" y="128" width="32" height="32" stroke="#FF0000" stroke-width="0.25"/>
<rect x="256" y="128" width="32" height="32" stroke="#FF0000" stroke-width="0.25"/>
<rect x="224" y="128" width="32" height="32" stroke="#FF0000" stroke-width="0.25"/>
<rect y="160" width="32" height="32" stroke="#FF0000" stroke-width="0.25"/>
<rect x="32" y="160" width="32" height="32" stroke="#FF0000" stroke-width="0.25"/>
<rect x="128" y="160" width="32" height="32" stroke="#FF0000" stroke-width="0.25"/>
<rect x="96" y="160" width="32" height="32" stroke="#FF0000" stroke-width="0.25"/>
<rect x="64" y="160" width="32" height="32" stroke="#FF0000" stroke-width="0.25"/>
<rect x="160" y="160" width="32" height="32" stroke="#FF0000" stroke-width="0.25"/>
<rect x="192" y="160" width="32" height="32" stroke="#FF0000" stroke-width="0.25"/>
<rect x="288" y="160" width="32" height="32" stroke="#FF0000" stroke-width="0.25"/>
<rect x="320" y="160" width="32" height="32" stroke="#FF0000" stroke-width="0.25"/>
<rect x="256" y="160" width="32" height="32" stroke="#FF0000" stroke-width="0.25"/>
<rect x="224" y="160" width="32" height="32" stroke="#FF0000" stroke-width="0.25"/>
<rect y="288" width="32" height="32" stroke="#FF0000" stroke-width="0.25"/>
<rect x="32" y="288" width="32" height="32" stroke="#FF0000" stroke-width="0.25"/>
<rect x="128" y="288" width="32" height="32" stroke="#FF0000" stroke-width="0.25"/>
<rect x="96" y="288" width="32" height="32" stroke="#FF0000" stroke-width="0.25"/>
<rect x="64" y="288" width="32" height="32" stroke="#FF0000" stroke-width="0.25"/>
<rect x="160" y="288" width="32" height="32" stroke="#FF0000" stroke-width="0.25"/>
<rect x="192" y="288" width="32" height="32" stroke="#FF0000" stroke-width="0.25"/>
<rect x="288" y="288" width="32" height="32" stroke="#FF0000" stroke-width="0.25"/>
<rect x="320" y="288" width="32" height="32" stroke="#FF0000" stroke-width="0.25"/>
<rect x="256" y="288" width="32" height="32" stroke="#FF0000" stroke-width="0.25"/>
<rect x="224" y="288" width="32" height="32" stroke="#FF0000" stroke-width="0.25"/>
<rect y="320" width="32" height="32" stroke="#FF0000" stroke-width="0.25"/>
<rect x="32" y="320" width="32" height="32" stroke="#FF0000" stroke-width="0.25"/>
<rect x="128" y="320" width="32" height="32" stroke="#FF0000" stroke-width="0.25"/>
<rect x="96" y="320" width="32" height="32" stroke="#FF0000" stroke-width="0.25"/>
<rect x="64" y="320" width="32" height="32" stroke="#FF0000" stroke-width="0.25"/>
<rect x="160" y="320" width="32" height="32" stroke="#FF0000" stroke-width="0.25"/>
<rect x="192" y="320" width="32" height="32" stroke="#FF0000" stroke-width="0.25"/>
<rect x="288" y="320" width="32" height="32" stroke="#FF0000" stroke-width="0.25"/>
<rect x="320" y="320" width="32" height="32" stroke="#FF0000" stroke-width="0.25"/>
<rect x="256" y="320" width="32" height="32" stroke="#FF0000" stroke-width="0.25"/>
<rect x="224" y="320" width="32" height="32" stroke="#FF0000" stroke-width="0.25"/>
<rect y="352" width="32" height="32" stroke="#FF0000" stroke-width="0.25"/>
<rect x="32" y="352" width="32" height="32" stroke="#FF0000" stroke-width="0.25"/>
<rect x="128" y="352" width="32" height="32" stroke="#FF0000" stroke-width="0.25"/>
<rect x="96" y="352" width="32" height="32" stroke="#FF0000" stroke-width="0.25"/>
<rect x="64" y="352" width="32" height="32" stroke="#FF0000" stroke-width="0.25"/>
<rect x="160" y="352" width="32" height="32" stroke="#FF0000" stroke-width="0.25"/>
<rect x="192" y="352" width="32" height="32" stroke="#FF0000" stroke-width="0.25"/>
<rect x="288" y="352" width="32" height="32" stroke="#FF0000" stroke-width="0.25"/>
<rect x="320" y="352" width="32" height="32" stroke="#FF0000" stroke-width="0.25"/>
<rect x="256" y="352" width="32" height="32" stroke="#FF0000" stroke-width="0.25"/>
<rect x="224" y="352" width="32" height="32" stroke="#FF0000" stroke-width="0.25"/>
<rect y="480" width="32" height="32" stroke="#FF0000" stroke-width="0.25"/>
<rect x="32" y="480" width="32" height="32" stroke="#FF0000" stroke-width="0.25"/>
<rect x="128" y="480" width="32" height="32" stroke="#FF0000" stroke-width="0.25"/>
<rect x="96" y="480" width="32" height="32" stroke="#FF0000" stroke-width="0.25"/>
<rect x="64" y="480" width="32" height="32" stroke="#FF0000" stroke-width="0.25"/>
<rect x="160" y="480" width="32" height="32" stroke="#FF0000" stroke-width="0.25"/>
<rect x="192" y="480" width="32" height="32" stroke="#FF0000" stroke-width="0.25"/>
<rect x="288" y="480" width="32" height="32" stroke="#FF0000" stroke-width="0.25"/>
<rect x="320" y="480" width="32" height="32" stroke="#FF0000" stroke-width="0.25"/>
<rect x="256" y="480" width="32" height="32" stroke="#FF0000" stroke-width="0.25"/>
<rect x="224" y="480" width="32" height="32" stroke="#FF0000" stroke-width="0.25"/>
<rect y="512" width="32" height="32" stroke="#FF0000" stroke-width="0.25"/>
<rect x="32" y="512" width="32" height="32" stroke="#FF0000" stroke-width="0.25"/>
<rect x="128" y="512" width="32" height="32" stroke="#FF0000" stroke-width="0.25"/>
<rect x="96" y="512" width="32" height="32" stroke="#FF0000" stroke-width="0.25"/>
<rect x="64" y="512" width="32" height="32" stroke="#FF0000" stroke-width="0.25"/>
<rect x="160" y="512" width="32" height="32" stroke="#FF0000" stroke-width="0.25"/>
<rect x="192" y="512" width="32" height="32" stroke="#FF0000" stroke-width="0.25"/>
<rect x="288" y="512" width="32" height="32" stroke="#FF0000" stroke-width="0.25"/>
<rect x="320" y="512" width="32" height="32" stroke="#FF0000" stroke-width="0.25"/>
<rect x="256" y="512" width="32" height="32" stroke="#FF0000" stroke-width="0.25"/>
<rect x="224" y="512" width="32" height="32" stroke="#FF0000" stroke-width="0.25"/>
<rect y="544" width="32" height="32" stroke="#FF0000" stroke-width="0.25"/>
<rect x="32" y="544" width="32" height="32" stroke="#FF0000" stroke-width="0.25"/>
<rect x="128" y="544" width="32" height="32" stroke="#FF0000" stroke-width="0.25"/>
<rect x="96" y="544" width="32" height="32" stroke="#FF0000" stroke-width="0.25"/>
<rect x="64" y="544" width="32" height="32" stroke="#FF0000" stroke-width="0.25"/>
<rect x="160" y="544" width="32" height="32" stroke="#FF0000" stroke-width="0.25"/>
<rect x="192" y="544" width="32" height="32" stroke="#FF0000" stroke-width="0.25"/>
<rect x="288" y="544" width="32" height="32" stroke="#FF0000" stroke-width="0.25"/>
<rect x="320" y="544" width="32" height="32" stroke="#FF0000" stroke-width="0.25"/>
<rect x="256" y="544" width="32" height="32" stroke="#FF0000" stroke-width="0.25"/>
<rect x="224" y="544" width="32" height="32" stroke="#FF0000" stroke-width="0.25"/>
<rect y="384" width="32" height="32" stroke="#FF0000" stroke-width="0.25"/>
<rect x="32" y="384" width="32" height="32" stroke="#FF0000" stroke-width="0.25"/>
<rect x="128" y="384" width="32" height="32" stroke="#FF0000" stroke-width="0.25"/>
<rect x="96" y="384" width="32" height="32" stroke="#FF0000" stroke-width="0.25"/>
<rect x="64" y="384" width="32" height="32" stroke="#FF0000" stroke-width="0.25"/>
<rect x="160" y="384" width="32" height="32" stroke="#FF0000" stroke-width="0.25"/>
<rect x="192" y="384" width="32" height="32" stroke="#FF0000" stroke-width="0.25"/>
<rect x="288" y="384" width="32" height="32" stroke="#FF0000" stroke-width="0.25"/>
<rect x="320" y="384" width="32" height="32" stroke="#FF0000" stroke-width="0.25"/>
<rect x="256" y="384" width="32" height="32" stroke="#FF0000" stroke-width="0.25"/>
<rect x="224" y="384" width="32" height="32" stroke="#FF0000" stroke-width="0.25"/>
<rect y="416" width="32" height="32" stroke="#FF0000" stroke-width="0.25"/>
<rect x="32" y="416" width="32" height="32" stroke="#FF0000" stroke-width="0.25"/>
<rect x="128" y="416" width="32" height="32" stroke="#FF0000" stroke-width="0.25"/>
<rect x="96" y="416" width="32" height="32" stroke="#FF0000" stroke-width="0.25"/>
<rect x="64" y="416" width="32" height="32" stroke="#FF0000" stroke-width="0.25"/>
<rect x="160" y="416" width="32" height="32" stroke="#FF0000" stroke-width="0.25"/>
<rect x="192" y="416" width="32" height="32" stroke="#FF0000" stroke-width="0.25"/>
<rect x="288" y="416" width="32" height="32" stroke="#FF0000" stroke-width="0.25"/>
<rect x="320" y="416" width="32" height="32" stroke="#FF0000" stroke-width="0.25"/>
<rect x="256" y="416" width="32" height="32" stroke="#FF0000" stroke-width="0.25"/>
<rect x="224" y="416" width="32" height="32" stroke="#FF0000" stroke-width="0.25"/>
<rect y="448" width="32" height="32" stroke="#FF0000" stroke-width="0.25"/>
<rect x="32" y="448" width="32" height="32" stroke="#FF0000" stroke-width="0.25"/>
<rect x="128" y="448" width="32" height="32" stroke="#FF0000" stroke-width="0.25"/>
<rect x="96" y="448" width="32" height="32" stroke="#FF0000" stroke-width="0.25"/>
<rect x="64" y="448" width="32" height="32" stroke="#FF0000" stroke-width="0.25"/>
<rect x="160" y="448" width="32" height="32" stroke="#FF0000" stroke-width="0.25"/>
<rect x="192" y="448" width="32" height="32" stroke="#FF0000" stroke-width="0.25"/>
<rect x="288" y="448" width="32" height="32" stroke="#FF0000" stroke-width="0.25"/>
<rect x="320" y="448" width="32" height="32" stroke="#FF0000" stroke-width="0.25"/>
<rect x="256" y="448" width="32" height="32" stroke="#FF0000" stroke-width="0.25"/>
<rect x="224" y="448" width="32" height="32" stroke="#FF0000" stroke-width="0.25"/>
<rect x="352" width="32" height="32" stroke="#FF0000" stroke-width="0.25"/>
<rect x="384" width="32" height="32" stroke="#FF0000" stroke-width="0.25"/>
<rect x="480" width="32" height="32" stroke="#FF0000" stroke-width="0.25"/>
<rect x="448" width="32" height="32" stroke="#FF0000" stroke-width="0.25"/>
<rect x="416" width="32" height="32" stroke="#FF0000" stroke-width="0.25"/>
<rect x="512" width="32" height="32" stroke="#FF0000" stroke-width="0.25"/>
<rect x="544" width="32" height="32" stroke="#FF0000" stroke-width="0.25"/>
<rect x="640" width="32" height="32" stroke="#FF0000" stroke-width="0.25"/>
<rect x="672" width="32" height="32" stroke="#FF0000" stroke-width="0.25"/>
<rect x="608" width="32" height="32" stroke="#FF0000" stroke-width="0.25"/>
<rect x="576" width="32" height="32" stroke="#FF0000" stroke-width="0.25"/>
<rect x="352" y="32" width="32" height="32" stroke="#FF0000" stroke-width="0.25"/>
<rect x="384" y="32" width="32" height="32" stroke="#FF0000" stroke-width="0.25"/>
<rect x="480" y="32" width="32" height="32" stroke="#FF0000" stroke-width="0.25"/>
<rect x="448" y="32" width="32" height="32" stroke="#FF0000" stroke-width="0.25"/>
<rect x="416" y="32" width="32" height="32" stroke="#FF0000" stroke-width="0.25"/>
<rect x="512" y="32" width="32" height="32" stroke="#FF0000" stroke-width="0.25"/>
<rect x="544" y="32" width="32" height="32" stroke="#FF0000" stroke-width="0.25"/>
<rect x="640" y="32" width="32" height="32" stroke="#FF0000" stroke-width="0.25"/>
<rect x="672" y="32" width="32" height="32" stroke="#FF0000" stroke-width="0.25"/>
<rect x="608" y="32" width="32" height="32" stroke="#FF0000" stroke-width="0.25"/>
<rect x="576" y="32" width="32" height="32" stroke="#FF0000" stroke-width="0.25"/>
<rect x="352" y="64" width="32" height="32" stroke="#FF0000" stroke-width="0.25"/>
<rect x="384" y="64" width="32" height="32" stroke="#FF0000" stroke-width="0.25"/>
<rect x="480" y="64" width="32" height="32" stroke="#FF0000" stroke-width="0.25"/>
<rect x="448" y="64" width="32" height="32" stroke="#FF0000" stroke-width="0.25"/>
<rect x="416" y="64" width="32" height="32" stroke="#FF0000" stroke-width="0.25"/>
<rect x="512" y="64" width="32" height="32" stroke="#FF0000" stroke-width="0.25"/>
<rect x="544" y="64" width="32" height="32" stroke="#FF0000" stroke-width="0.25"/>
<rect x="640" y="64" width="32" height="32" stroke="#FF0000" stroke-width="0.25"/>
<rect x="672" y="64" width="32" height="32" stroke="#FF0000" stroke-width="0.25"/>
<rect x="608" y="64" width="32" height="32" stroke="#FF0000" stroke-width="0.25"/>
<rect x="576" y="64" width="32" height="32" stroke="#FF0000" stroke-width="0.25"/>
<rect x="352" y="192" width="32" height="32" stroke="#FF0000" stroke-width="0.25"/>
<rect x="384" y="192" width="32" height="32" stroke="#FF0000" stroke-width="0.25"/>
<rect x="480" y="192" width="32" height="32" stroke="#FF0000" stroke-width="0.25"/>
<rect x="448" y="192" width="32" height="32" stroke="#FF0000" stroke-width="0.25"/>
<rect x="416" y="192" width="32" height="32" stroke="#FF0000" stroke-width="0.25"/>
<rect x="512" y="192" width="32" height="32" stroke="#FF0000" stroke-width="0.25"/>
<rect x="544" y="192" width="32" height="32" stroke="#FF0000" stroke-width="0.25"/>
<rect x="640" y="192" width="32" height="32" stroke="#FF0000" stroke-width="0.25"/>
<rect x="672" y="192" width="32" height="32" stroke="#FF0000" stroke-width="0.25"/>
<rect x="608" y="192" width="32" height="32" stroke="#FF0000" stroke-width="0.25"/>
<rect x="576" y="192" width="32" height="32" stroke="#FF0000" stroke-width="0.25"/>
<rect x="352" y="224" width="32" height="32" stroke="#FF0000" stroke-width="0.25"/>
<rect x="384" y="224" width="32" height="32" stroke="#FF0000" stroke-width="0.25"/>
<rect x="480" y="224" width="32" height="32" stroke="#FF0000" stroke-width="0.25"/>
<rect x="448" y="224" width="32" height="32" stroke="#FF0000" stroke-width="0.25"/>
<rect x="416" y="224" width="32" height="32" stroke="#FF0000" stroke-width="0.25"/>
<rect x="512" y="224" width="32" height="32" stroke="#FF0000" stroke-width="0.25"/>
<rect x="544" y="224" width="32" height="32" stroke="#FF0000" stroke-width="0.25"/>
<rect x="640" y="224" width="32" height="32" stroke="#FF0000" stroke-width="0.25"/>
<rect x="672" y="224" width="32" height="32" stroke="#FF0000" stroke-width="0.25"/>
<rect x="608" y="224" width="32" height="32" stroke="#FF0000" stroke-width="0.25"/>
<rect x="576" y="224" width="32" height="32" stroke="#FF0000" stroke-width="0.25"/>
<rect x="352" y="256" width="32" height="32" stroke="#FF0000" stroke-width="0.25"/>
<rect x="384" y="256" width="32" height="32" stroke="#FF0000" stroke-width="0.25"/>
<rect x="480" y="256" width="32" height="32" stroke="#FF0000" stroke-width="0.25"/>
<rect x="448" y="256" width="32" height="32" stroke="#FF0000" stroke-width="0.25"/>
<rect x="416" y="256" width="32" height="32" stroke="#FF0000" stroke-width="0.25"/>
<rect x="512" y="256" width="32" height="32" stroke="#FF0000" stroke-width="0.25"/>
<rect x="544" y="256" width="32" height="32" stroke="#FF0000" stroke-width="0.25"/>
<rect x="640" y="256" width="32" height="32" stroke="#FF0000" stroke-width="0.25"/>
<rect x="672" y="256" width="32" height="32" stroke="#FF0000" stroke-width="0.25"/>
<rect x="608" y="256" width="32" height="32" stroke="#FF0000" stroke-width="0.25"/>
<rect x="576" y="256" width="32" height="32" stroke="#FF0000" stroke-width="0.25"/>
<rect x="352" y="96" width="32" height="32" stroke="#FF0000" stroke-width="0.25"/>
<rect x="384" y="96" width="32" height="32" stroke="#FF0000" stroke-width="0.25"/>
<rect x="480" y="96" width="32" height="32" stroke="#FF0000" stroke-width="0.25"/>
<rect x="448" y="96" width="32" height="32" stroke="#FF0000" stroke-width="0.25"/>
<rect x="416" y="96" width="32" height="32" stroke="#FF0000" stroke-width="0.25"/>
<rect x="512" y="96" width="32" height="32" stroke="#FF0000" stroke-width="0.25"/>
<rect x="544" y="96" width="32" height="32" stroke="#FF0000" stroke-width="0.25"/>
<rect x="640" y="96" width="32" height="32" stroke="#FF0000" stroke-width="0.25"/>
<rect x="672" y="96" width="32" height="32" stroke="#FF0000" stroke-width="0.25"/>
<rect x="608" y="96" width="32" height="32" stroke="#FF0000" stroke-width="0.25"/>
<rect x="576" y="96" width="32" height="32" stroke="#FF0000" stroke-width="0.25"/>
<rect x="352" y="128" width="32" height="32" stroke="#FF0000" stroke-width="0.25"/>
<rect x="384" y="128" width="32" height="32" stroke="#FF0000" stroke-width="0.25"/>
<rect x="480" y="128" width="32" height="32" stroke="#FF0000" stroke-width="0.25"/>
<rect x="448" y="128" width="32" height="32" stroke="#FF0000" stroke-width="0.25"/>
<rect x="416" y="128" width="32" height="32" stroke="#FF0000" stroke-width="0.25"/>
<rect x="512" y="128" width="32" height="32" stroke="#FF0000" stroke-width="0.25"/>
<rect x="544" y="128" width="32" height="32" stroke="#FF0000" stroke-width="0.25"/>
<rect x="640" y="128" width="32" height="32" stroke="#FF0000" stroke-width="0.25"/>
<rect x="672" y="128" width="32" height="32" stroke="#FF0000" stroke-width="0.25"/>
<rect x="608" y="128" width="32" height="32" stroke="#FF0000" stroke-width="0.25"/>
<rect x="576" y="128" width="32" height="32" stroke="#FF0000" stroke-width="0.25"/>
<rect x="352" y="160" width="32" height="32" stroke="#FF0000" stroke-width="0.25"/>
<rect x="384" y="160" width="32" height="32" stroke="#FF0000" stroke-width="0.25"/>
<rect x="480" y="160" width="32" height="32" stroke="#FF0000" stroke-width="0.25"/>
<rect x="448" y="160" width="32" height="32" stroke="#FF0000" stroke-width="0.25"/>
<rect x="416" y="160" width="32" height="32" stroke="#FF0000" stroke-width="0.25"/>
<rect x="512" y="160" width="32" height="32" stroke="#FF0000" stroke-width="0.25"/>
<rect x="544" y="160" width="32" height="32" stroke="#FF0000" stroke-width="0.25"/>
<rect x="640" y="160" width="32" height="32" stroke="#FF0000" stroke-width="0.25"/>
<rect x="672" y="160" width="32" height="32" stroke="#FF0000" stroke-width="0.25"/>
<rect x="608" y="160" width="32" height="32" stroke="#FF0000" stroke-width="0.25"/>
<rect x="576" y="160" width="32" height="32" stroke="#FF0000" stroke-width="0.25"/>
<rect x="352" y="288" width="32" height="32" stroke="#FF0000" stroke-width="0.25"/>
<rect x="384" y="288" width="32" height="32" stroke="#FF0000" stroke-width="0.25"/>
<rect x="480" y="288" width="32" height="32" stroke="#FF0000" stroke-width="0.25"/>
<rect x="448" y="288" width="32" height="32" stroke="#FF0000" stroke-width="0.25"/>
<rect x="416" y="288" width="32" height="32" stroke="#FF0000" stroke-width="0.25"/>
<rect x="512" y="288" width="32" height="32" stroke="#FF0000" stroke-width="0.25"/>
<rect x="544" y="288" width="32" height="32" stroke="#FF0000" stroke-width="0.25"/>
<rect x="640" y="288" width="32" height="32" stroke="#FF0000" stroke-width="0.25"/>
<rect x="672" y="288" width="32" height="32" stroke="#FF0000" stroke-width="0.25"/>
<rect x="608" y="288" width="32" height="32" stroke="#FF0000" stroke-width="0.25"/>
<rect x="576" y="288" width="32" height="32" stroke="#FF0000" stroke-width="0.25"/>
<rect x="352" y="320" width="32" height="32" stroke="#FF0000" stroke-width="0.25"/>
<rect x="384" y="320" width="32" height="32" stroke="#FF0000" stroke-width="0.25"/>
<rect x="480" y="320" width="32" height="32" stroke="#FF0000" stroke-width="0.25"/>
<rect x="448" y="320" width="32" height="32" stroke="#FF0000" stroke-width="0.25"/>
<rect x="416" y="320" width="32" height="32" stroke="#FF0000" stroke-width="0.25"/>
<rect x="512" y="320" width="32" height="32" stroke="#FF0000" stroke-width="0.25"/>
<rect x="544" y="320" width="32" height="32" stroke="#FF0000" stroke-width="0.25"/>
<rect x="640" y="320" width="32" height="32" stroke="#FF0000" stroke-width="0.25"/>
<rect x="672" y="320" width="32" height="32" stroke="#FF0000" stroke-width="0.25"/>
<rect x="608" y="320" width="32" height="32" stroke="#FF0000" stroke-width="0.25"/>
<rect x="576" y="320" width="32" height="32" stroke="#FF0000" stroke-width="0.25"/>
<rect x="352" y="352" width="32" height="32" stroke="#FF0000" stroke-width="0.25"/>
<rect x="384" y="352" width="32" height="32" stroke="#FF0000" stroke-width="0.25"/>
<rect x="480" y="352" width="32" height="32" stroke="#FF0000" stroke-width="0.25"/>
<rect x="448" y="352" width="32" height="32" stroke="#FF0000" stroke-width="0.25"/>
<rect x="416" y="352" width="32" height="32" stroke="#FF0000" stroke-width="0.25"/>
<rect x="512" y="352" width="32" height="32" stroke="#FF0000" stroke-width="0.25"/>
<rect x="544" y="352" width="32" height="32" stroke="#FF0000" stroke-width="0.25"/>
<rect x="640" y="352" width="32" height="32" stroke="#FF0000" stroke-width="0.25"/>
<rect x="672" y="352" width="32" height="32" stroke="#FF0000" stroke-width="0.25"/>
<rect x="608" y="352" width="32" height="32" stroke="#FF0000" stroke-width="0.25"/>
<rect x="576" y="352" width="32" height="32" stroke="#FF0000" stroke-width="0.25"/>
<rect x="352" y="480" width="32" height="32" stroke="#FF0000" stroke-width="0.25"/>
<rect x="384" y="480" width="32" height="32" stroke="#FF0000" stroke-width="0.25"/>
<rect x="480" y="480" width="32" height="32" stroke="#FF0000" stroke-width="0.25"/>
<rect x="448" y="480" width="32" height="32" stroke="#FF0000" stroke-width="0.25"/>
<rect x="416" y="480" width="32" height="32" stroke="#FF0000" stroke-width="0.25"/>
<rect x="512" y="480" width="32" height="32" stroke="#FF0000" stroke-width="0.25"/>
<rect x="544" y="480" width="32" height="32" stroke="#FF0000" stroke-width="0.25"/>
<rect x="640" y="480" width="32" height="32" stroke="#FF0000" stroke-width="0.25"/>
<rect x="672" y="480" width="32" height="32" stroke="#FF0000" stroke-width="0.25"/>
<rect x="608" y="480" width="32" height="32" stroke="#FF0000" stroke-width="0.25"/>
<rect x="576" y="480" width="32" height="32" stroke="#FF0000" stroke-width="0.25"/>
<rect x="352" y="512" width="32" height="32" stroke="#FF0000" stroke-width="0.25"/>
<rect x="384" y="512" width="32" height="32" stroke="#FF0000" stroke-width="0.25"/>
<rect x="480" y="512" width="32" height="32" stroke="#FF0000" stroke-width="0.25"/>
<rect x="448" y="512" width="32" height="32" stroke="#FF0000" stroke-width="0.25"/>
<rect x="416" y="512" width="32" height="32" stroke="#FF0000" stroke-width="0.25"/>
<rect x="512" y="512" width="32" height="32" stroke="#FF0000" stroke-width="0.25"/>
<rect x="544" y="512" width="32" height="32" stroke="#FF0000" stroke-width="0.25"/>
<rect x="640" y="512" width="32" height="32" stroke="#FF0000" stroke-width="0.25"/>
<rect x="672" y="512" width="32" height="32" stroke="#FF0000" stroke-width="0.25"/>
<rect x="608" y="512" width="32" height="32" stroke="#FF0000" stroke-width="0.25"/>
<rect x="576" y="512" width="32" height="32" stroke="#FF0000" stroke-width="0.25"/>
<rect x="352" y="544" width="32" height="32" stroke="#FF0000" stroke-width="0.25"/>
<rect x="384" y="544" width="32" height="32" stroke="#FF0000" stroke-width="0.25"/>
<rect x="480" y="544" width="32" height="32" stroke="#FF0000" stroke-width="0.25"/>
<rect x="448" y="544" width="32" height="32" stroke="#FF0000" stroke-width="0.25"/>
<rect x="416" y="544" width="32" height="32" stroke="#FF0000" stroke-width="0.25"/>
<rect x="512" y="544" width="32" height="32" stroke="#FF0000" stroke-width="0.25"/>
<rect x="544" y="544" width="32" height="32" stroke="#FF0000" stroke-width="0.25"/>
<rect x="640" y="544" width="32" height="32" stroke="#FF0000" stroke-width="0.25"/>
<rect x="672" y="544" width="32" height="32" stroke="#FF0000" stroke-width="0.25"/>
<rect x="608" y="544" width="32" height="32" stroke="#FF0000" stroke-width="0.25"/>
<rect x="576" y="544" width="32" height="32" stroke="#FF0000" stroke-width="0.25"/>
<rect x="352" y="384" width="32" height="32" stroke="#FF0000" stroke-width="0.25"/>
<rect x="384" y="384" width="32" height="32" stroke="#FF0000" stroke-width="0.25"/>
<rect x="480" y="384" width="32" height="32" stroke="#FF0000" stroke-width="0.25"/>
<rect x="448" y="384" width="32" height="32" stroke="#FF0000" stroke-width="0.25"/>
<rect x="416" y="384" width="32" height="32" stroke="#FF0000" stroke-width="0.25"/>
<rect x="512" y="384" width="32" height="32" stroke="#FF0000" stroke-width="0.25"/>
<rect x="544" y="384" width="32" height="32" stroke="#FF0000" stroke-width="0.25"/>
<rect x="640" y="384" width="32" height="32" stroke="#FF0000" stroke-width="0.25"/>
<rect x="672" y="384" width="32" height="32" stroke="#FF0000" stroke-width="0.25"/>
<rect x="608" y="384" width="32" height="32" stroke="#FF0000" stroke-width="0.25"/>
<rect x="576" y="384" width="32" height="32" stroke="#FF0000" stroke-width="0.25"/>
<rect x="352" y="416" width="32" height="32" stroke="#FF0000" stroke-width="0.25"/>
<rect x="384" y="416" width="32" height="32" stroke="#FF0000" stroke-width="0.25"/>
<rect x="480" y="416" width="32" height="32" stroke="#FF0000" stroke-width="0.25"/>
<rect x="448" y="416" width="32" height="32" stroke="#FF0000" stroke-width="0.25"/>
<rect x="416" y="416" width="32" height="32" stroke="#FF0000" stroke-width="0.25"/>
<rect x="512" y="416" width="32" height="32" stroke="#FF0000" stroke-width="0.25"/>
<rect x="544" y="416" width="32" height="32" stroke="#FF0000" stroke-width="0.25"/>
<rect x="640" y="416" width="32" height="32" stroke="#FF0000" stroke-width="0.25"/>
<rect x="672" y="416" width="32" height="32" stroke="#FF0000" stroke-width="0.25"/>
<rect x="608" y="416" width="32" height="32" stroke="#FF0000" stroke-width="0.25"/>
<rect x="576" y="416" width="32" height="32" stroke="#FF0000" stroke-width="0.25"/>
<rect x="352" y="448" width="32" height="32" stroke="#FF0000" stroke-width="0.25"/>
<rect x="384" y="448" width="32" height="32" stroke="#FF0000" stroke-width="0.25"/>
<rect x="480" y="448" width="32" height="32" stroke="#FF0000" stroke-width="0.25"/>
<rect x="448" y="448" width="32" height="32" stroke="#FF0000" stroke-width="0.25"/>
<rect x="416" y="448" width="32" height="32" stroke="#FF0000" stroke-width="0.25"/>
<rect x="512" y="448" width="32" height="32" stroke="#FF0000" stroke-width="0.25"/>
<rect x="544" y="448" width="32" height="32" stroke="#FF0000" stroke-width="0.25"/>
<rect x="640" y="448" width="32" height="32" stroke="#FF0000" stroke-width="0.25"/>
<rect x="672" y="448" width="32" height="32" stroke="#FF0000" stroke-width="0.25"/>
<rect x="608" y="448" width="32" height="32" stroke="#FF0000" stroke-width="0.25"/>
<rect x="576" y="448" width="32" height="32" stroke="#FF0000" stroke-width="0.25"/>
</g>
<defs>
<clipPath id="clip0_1_2">
<rect width="704" height="576" fill="white"/>
</clipPath>
</defs>
</svg>
